G75*
%MOIN*%
%OFA0B0*%
%FSLAX25Y25*%
%IPPOS*%
%LPD*%
%AMOC8*
5,1,8,0,0,1.08239X$1,22.5*
%
%ADD10R,0.05512X0.03937*%
%ADD11R,0.06299X0.07098*%
%ADD12C,0.04362*%
%ADD13R,0.07098X0.06299*%
%ADD14C,0.06000*%
%ADD15R,0.10950X0.10950*%
%ADD16R,0.06000X0.06000*%
%ADD17OC8,0.06000*%
%ADD18R,0.07087X0.06299*%
%ADD19R,0.06299X0.07087*%
%ADD20R,0.04331X0.02362*%
%ADD21R,0.15748X0.05906*%
%ADD22R,0.05984X0.06614*%
%ADD23C,0.00787*%
%ADD24C,0.02978*%
%ADD25C,0.00600*%
%ADD26C,0.01600*%
%ADD27OC8,0.02978*%
%ADD28C,0.02400*%
%ADD29C,0.02000*%
D10*
X0052169Y0144560D03*
X0052169Y0152040D03*
X0052369Y0160160D03*
X0052369Y0167640D03*
X0061031Y0163900D03*
X0052169Y0176360D03*
X0052169Y0183840D03*
X0060831Y0180100D03*
X0052169Y0193160D03*
X0052169Y0200640D03*
X0052169Y0208760D03*
X0060831Y0212500D03*
X0052169Y0216240D03*
X0060831Y0196900D03*
X0102169Y0194500D03*
X0110831Y0190760D03*
X0110831Y0198240D03*
X0147169Y0194500D03*
X0155831Y0190760D03*
X0155831Y0198240D03*
X0212169Y0194500D03*
X0220831Y0190760D03*
X0220831Y0198240D03*
X0257169Y0194500D03*
X0265831Y0190760D03*
X0265831Y0198240D03*
X0060831Y0148300D03*
D11*
X0106744Y0088759D03*
X0117941Y0088759D03*
X0117941Y0073759D03*
X0106744Y0073759D03*
X0166102Y0133300D03*
X0177298Y0133300D03*
X0177298Y0143100D03*
X0166102Y0143100D03*
X0166102Y0152900D03*
X0177298Y0152900D03*
X0177298Y0162500D03*
X0166102Y0162500D03*
X0166102Y0172100D03*
X0177298Y0172100D03*
X0177298Y0182100D03*
X0166102Y0182100D03*
X0166102Y0192100D03*
X0177298Y0192100D03*
X0177298Y0201700D03*
X0166102Y0201700D03*
X0166102Y0211500D03*
X0177298Y0211500D03*
X0177298Y0221100D03*
X0166102Y0221100D03*
X0214067Y0026968D03*
X0225264Y0026968D03*
X0242263Y0026988D03*
X0253460Y0026988D03*
D12*
X0245821Y0167650D03*
X0250993Y0170365D03*
X0254312Y0175172D03*
X0255016Y0180971D03*
X0252944Y0186433D03*
X0248572Y0190307D03*
X0242900Y0191705D03*
X0237228Y0190307D03*
X0232856Y0186433D03*
X0230784Y0180971D03*
X0231488Y0175172D03*
X0234807Y0170365D03*
X0239979Y0167650D03*
X0212212Y0175172D03*
X0212916Y0180971D03*
X0210844Y0186433D03*
X0206472Y0190307D03*
X0200800Y0191705D03*
X0195128Y0190307D03*
X0190756Y0186433D03*
X0188684Y0180971D03*
X0189388Y0175172D03*
X0192707Y0170365D03*
X0197879Y0167650D03*
X0203721Y0167650D03*
X0208893Y0170365D03*
X0143612Y0175872D03*
X0140293Y0171065D03*
X0135121Y0168350D03*
X0129279Y0168350D03*
X0124107Y0171065D03*
X0120788Y0175872D03*
X0120084Y0181671D03*
X0122156Y0187133D03*
X0126528Y0191007D03*
X0132200Y0192405D03*
X0137872Y0191007D03*
X0142244Y0187133D03*
X0144316Y0181671D03*
X0102216Y0180971D03*
X0101512Y0175172D03*
X0098193Y0170365D03*
X0093021Y0167650D03*
X0087179Y0167650D03*
X0082007Y0170365D03*
X0078688Y0175172D03*
X0077984Y0180971D03*
X0080056Y0186433D03*
X0084428Y0190307D03*
X0090100Y0191705D03*
X0095772Y0190307D03*
X0100144Y0186433D03*
D13*
X0101500Y0210302D03*
X0110900Y0210302D03*
X0110900Y0221498D03*
X0101500Y0221498D03*
X0146500Y0221498D03*
X0155900Y0221498D03*
X0155900Y0210302D03*
X0146500Y0210302D03*
X0210900Y0210302D03*
X0219700Y0210302D03*
X0219700Y0221498D03*
X0210900Y0221498D03*
X0257100Y0221498D03*
X0266500Y0221498D03*
X0266500Y0210302D03*
X0257100Y0210302D03*
D14*
X0019543Y0018059D02*
X0013543Y0018059D01*
X0013543Y0028059D02*
X0019543Y0028059D01*
X0019543Y0038059D02*
X0013543Y0038059D01*
X0013543Y0048059D02*
X0019543Y0048059D01*
X0019543Y0058059D02*
X0013543Y0058059D01*
X0013543Y0068059D02*
X0019543Y0068059D01*
X0019543Y0078059D02*
X0013543Y0078059D01*
X0013543Y0088059D02*
X0019543Y0088059D01*
X0019543Y0098059D02*
X0013543Y0098059D01*
X0013500Y0137700D02*
X0019500Y0137700D01*
X0019500Y0147700D02*
X0013500Y0147700D01*
X0013500Y0157700D02*
X0019500Y0157700D01*
X0019500Y0167700D02*
X0013500Y0167700D01*
X0013500Y0177700D02*
X0019500Y0177700D01*
X0019500Y0187700D02*
X0013500Y0187700D01*
X0013500Y0197700D02*
X0019500Y0197700D01*
X0019500Y0207700D02*
X0013500Y0207700D01*
X0013500Y0217700D02*
X0019500Y0217700D01*
X0102257Y0034441D02*
X0102257Y0028441D01*
X0112257Y0028441D02*
X0112257Y0034441D01*
X0150843Y0034759D02*
X0150843Y0028759D01*
X0160843Y0028759D02*
X0160843Y0034759D01*
X0172543Y0035059D02*
X0172543Y0029059D01*
X0182543Y0029059D02*
X0182543Y0035059D01*
X0281843Y0038059D02*
X0287843Y0038059D01*
X0287843Y0028059D02*
X0281843Y0028059D01*
X0281843Y0018059D02*
X0287843Y0018059D01*
X0287843Y0048059D02*
X0281843Y0048059D01*
X0281843Y0058059D02*
X0287843Y0058059D01*
X0287843Y0068059D02*
X0281843Y0068059D01*
X0281843Y0078059D02*
X0287843Y0078059D01*
X0287843Y0088059D02*
X0281843Y0088059D01*
X0281800Y0137500D02*
X0287800Y0137500D01*
X0287800Y0147500D02*
X0281800Y0147500D01*
X0281800Y0157500D02*
X0287800Y0157500D01*
X0287800Y0167500D02*
X0281800Y0167500D01*
X0281800Y0177500D02*
X0287800Y0177500D01*
X0287800Y0187500D02*
X0281800Y0187500D01*
X0281800Y0197500D02*
X0287800Y0197500D01*
X0287800Y0207500D02*
X0281800Y0207500D01*
D15*
X0197243Y0092959D03*
X0145243Y0092959D03*
D16*
X0094843Y0108859D03*
X0057043Y0030659D03*
D17*
X0067043Y0030659D03*
X0077043Y0030659D03*
X0077043Y0040659D03*
X0067043Y0040659D03*
X0057043Y0040659D03*
X0064843Y0108859D03*
X0074843Y0108859D03*
X0084843Y0108859D03*
D18*
X0203000Y0038172D03*
X0203000Y0027148D03*
X0269412Y0027131D03*
X0269412Y0038155D03*
D19*
X0225172Y0055224D03*
X0214149Y0055224D03*
D20*
X0214340Y0044446D03*
X0214340Y0040706D03*
X0214340Y0036966D03*
X0224970Y0036966D03*
X0224970Y0040706D03*
X0224970Y0044446D03*
D21*
X0247185Y0050017D03*
X0247185Y0064190D03*
D22*
X0241271Y0037480D03*
X0254657Y0037480D03*
D23*
X0255436Y0036700D01*
X0260700Y0036700D01*
X0262100Y0035300D01*
X0262100Y0029000D01*
X0263969Y0027131D01*
X0269412Y0027131D01*
X0283215Y0027131D01*
X0284843Y0028059D01*
X0284615Y0028531D01*
X0284843Y0038059D02*
X0284238Y0038155D01*
X0269412Y0038155D01*
X0268012Y0039555D01*
X0260645Y0039555D01*
X0256500Y0043700D01*
X0257900Y0045100D01*
X0257900Y0061900D01*
X0255610Y0064190D01*
X0247185Y0064190D01*
X0257900Y0071000D02*
X0270500Y0058400D01*
X0284483Y0058400D01*
X0284843Y0058059D01*
X0284843Y0068059D02*
X0265741Y0068059D01*
X0259300Y0075200D01*
X0203300Y0075200D01*
X0184659Y0056559D01*
X0106343Y0056559D01*
X0110343Y0052659D02*
X0188459Y0052659D01*
X0206800Y0071000D01*
X0257900Y0071000D01*
X0276883Y0080800D02*
X0284843Y0088059D01*
X0276883Y0080800D02*
X0197000Y0080800D01*
X0180103Y0063903D01*
X0130058Y0063903D01*
X0130174Y0064020D01*
X0130058Y0063903D02*
X0130026Y0063903D01*
X0129843Y0063759D01*
X0129914Y0063759D02*
X0130058Y0063903D01*
X0129914Y0063759D02*
X0097043Y0063759D01*
X0095249Y0066549D02*
X0096900Y0068200D01*
X0096900Y0083317D01*
X0102343Y0088759D01*
X0106744Y0088759D01*
X0117941Y0088759D02*
X0117941Y0080100D01*
X0117983Y0080100D01*
X0119843Y0081959D01*
X0117941Y0080100D02*
X0117941Y0073759D01*
X0105847Y0072862D02*
X0104600Y0071615D01*
X0104600Y0069600D01*
X0102359Y0067359D01*
X0100643Y0067359D01*
X0095249Y0066549D02*
X0093032Y0066549D01*
X0102043Y0060159D02*
X0182659Y0060159D01*
X0201200Y0078700D01*
X0284783Y0078700D01*
X0284843Y0078059D01*
X0247089Y0051320D02*
X0246469Y0050700D01*
X0234800Y0050700D01*
X0232700Y0052800D01*
X0232700Y0059100D01*
X0229900Y0061900D01*
X0218700Y0061900D01*
X0214149Y0057349D01*
X0214149Y0055224D01*
X0214340Y0055033D02*
X0214340Y0044446D01*
X0214340Y0040706D02*
X0204134Y0040706D01*
X0194900Y0033900D02*
X0194900Y0030400D01*
X0187900Y0023400D01*
X0159202Y0023400D01*
X0150843Y0031759D01*
X0126741Y0018059D02*
X0122100Y0023400D01*
X0122100Y0046500D01*
X0119300Y0049300D01*
X0085700Y0049300D01*
X0083600Y0051400D01*
X0083600Y0078700D01*
X0082200Y0080100D01*
X0075200Y0080100D01*
X0078700Y0076600D02*
X0078700Y0047900D01*
X0080100Y0046500D01*
X0113000Y0046500D01*
X0115800Y0043700D01*
X0112300Y0038800D02*
X0110441Y0040659D01*
X0077043Y0040659D01*
X0074500Y0045100D02*
X0072400Y0043000D01*
X0072400Y0035302D01*
X0077043Y0030659D01*
X0072400Y0024800D02*
X0069600Y0022000D01*
X0051400Y0022000D01*
X0050700Y0022700D01*
X0057043Y0030659D02*
X0019143Y0030659D01*
X0016543Y0028059D01*
X0018602Y0036000D02*
X0016543Y0038059D01*
X0018602Y0036000D02*
X0061900Y0036000D01*
X0066559Y0040659D01*
X0074500Y0045100D02*
X0074500Y0067500D01*
X0090600Y0075900D02*
X0094843Y0080143D01*
X0094843Y0108859D01*
X0084843Y0108859D02*
X0084843Y0103759D01*
X0090543Y0099459D01*
X0090543Y0086259D01*
X0081001Y0098300D02*
X0082484Y0099783D01*
X0081001Y0098300D02*
X0068900Y0098300D01*
X0064843Y0102357D01*
X0064843Y0108859D01*
X0069200Y0130800D02*
X0106600Y0130800D01*
X0108600Y0128100D01*
X0108600Y0178100D01*
X0106429Y0180971D01*
X0102216Y0180971D01*
X0106416Y0180916D01*
X0111500Y0189500D01*
X0116500Y0184500D02*
X0116500Y0214193D01*
X0121807Y0219500D01*
X0120300Y0223900D02*
X0113700Y0215900D01*
X0101700Y0215900D01*
X0101100Y0216000D01*
X0101100Y0221098D01*
X0101500Y0221498D01*
X0110900Y0221500D02*
X0117900Y0228500D01*
X0133300Y0228500D01*
X0123400Y0223900D02*
X0120300Y0223900D01*
X0123400Y0223900D02*
X0129900Y0215300D01*
X0146437Y0215300D01*
X0146500Y0215363D01*
X0146500Y0221498D01*
X0146437Y0215300D02*
X0166102Y0215300D01*
X0166102Y0211500D01*
X0166102Y0201300D01*
X0165900Y0201098D01*
X0165900Y0200356D01*
X0166102Y0200558D01*
X0166102Y0199797D01*
X0165900Y0199595D01*
X0165900Y0198500D01*
X0166102Y0198702D01*
X0166102Y0199226D01*
X0165900Y0199024D01*
X0165900Y0200356D01*
X0166102Y0199797D02*
X0166102Y0199226D01*
X0166102Y0201700D02*
X0166102Y0192100D01*
X0166102Y0182100D01*
X0165900Y0182302D01*
X0165900Y0172302D01*
X0166102Y0172100D01*
X0166102Y0162500D01*
X0166102Y0152900D01*
X0166102Y0143100D01*
X0166102Y0133300D01*
X0177298Y0133300D02*
X0178498Y0134500D01*
X0210717Y0134500D01*
X0212212Y0136695D01*
X0212212Y0175172D01*
X0216500Y0179500D02*
X0216500Y0131000D01*
X0215700Y0128100D01*
X0206211Y0139500D02*
X0180898Y0139500D01*
X0177298Y0143100D01*
X0185698Y0144500D02*
X0177298Y0152900D01*
X0183900Y0153500D02*
X0186900Y0150500D01*
X0196900Y0150500D01*
X0197900Y0149500D01*
X0197879Y0152279D01*
X0197879Y0167650D01*
X0193407Y0166907D02*
X0192707Y0170365D01*
X0193407Y0166907D02*
X0193600Y0154500D01*
X0190100Y0154500D01*
X0185100Y0159500D01*
X0185100Y0164298D01*
X0177298Y0172100D01*
X0177298Y0162500D02*
X0178500Y0162500D01*
X0183900Y0157100D01*
X0183900Y0153500D01*
X0190100Y0159500D02*
X0190100Y0166100D01*
X0187200Y0169000D01*
X0187200Y0172984D01*
X0189388Y0175172D01*
X0189228Y0175172D01*
X0182700Y0181700D01*
X0177698Y0181700D01*
X0177298Y0182100D01*
X0186500Y0184500D02*
X0186500Y0194346D01*
X0184254Y0192100D01*
X0177298Y0192100D01*
X0186500Y0194346D02*
X0186500Y0214500D01*
X0191500Y0219500D01*
X0178698Y0219500D01*
X0177298Y0221100D02*
X0180498Y0224300D01*
X0191400Y0224300D01*
X0197100Y0218600D01*
X0197100Y0215100D01*
X0196500Y0214500D01*
X0190756Y0209456D01*
X0190756Y0186433D01*
X0186500Y0184500D02*
X0189384Y0181616D01*
X0188684Y0180971D01*
X0195128Y0190307D02*
X0195128Y0203828D01*
X0200100Y0209500D01*
X0203384Y0204500D02*
X0200800Y0201216D01*
X0200800Y0191705D01*
X0206472Y0190307D02*
X0206472Y0199372D01*
X0206500Y0199500D01*
X0210844Y0195275D02*
X0212169Y0194500D01*
X0212169Y0209032D01*
X0210900Y0210302D01*
X0211345Y0215900D02*
X0210900Y0216345D01*
X0210900Y0221498D01*
X0219700Y0221498D02*
X0222502Y0224300D01*
X0226400Y0224300D01*
X0230271Y0223951D02*
X0226500Y0220181D01*
X0226500Y0218900D01*
X0223500Y0215900D01*
X0211345Y0215900D01*
X0203700Y0215900D01*
X0192300Y0227300D01*
X0172685Y0227300D01*
X0166102Y0220716D01*
X0166102Y0215300D01*
X0166102Y0220716D02*
X0166102Y0221100D01*
X0158916Y0229900D02*
X0155900Y0226884D01*
X0155900Y0223603D01*
X0158916Y0229900D02*
X0195600Y0229900D01*
X0197700Y0227800D01*
X0274700Y0227800D01*
X0277500Y0224300D01*
X0277500Y0201200D01*
X0281200Y0197500D01*
X0284800Y0197500D01*
X0265831Y0198240D02*
X0265831Y0209632D01*
X0266500Y0210302D01*
X0271900Y0214500D02*
X0271900Y0172500D01*
X0277600Y0167500D01*
X0284800Y0167500D01*
X0284800Y0177500D02*
X0278100Y0177500D01*
X0274000Y0181600D01*
X0274000Y0217300D01*
X0271900Y0220800D01*
X0267198Y0220800D01*
X0266500Y0221498D01*
X0270300Y0216100D02*
X0271900Y0214500D01*
X0270300Y0216100D02*
X0258100Y0216100D01*
X0258300Y0215900D01*
X0258100Y0216100D02*
X0257100Y0217100D01*
X0257100Y0221498D01*
X0256500Y0219500D01*
X0238747Y0219500D01*
X0236264Y0223951D01*
X0230271Y0223951D01*
X0231299Y0219500D02*
X0226500Y0214701D01*
X0226500Y0184500D01*
X0229384Y0181616D01*
X0230784Y0180971D01*
X0232856Y0186433D02*
X0232856Y0209456D01*
X0236500Y0214500D01*
X0241500Y0209500D02*
X0237228Y0204528D01*
X0237228Y0190307D01*
X0242900Y0191705D02*
X0242900Y0200200D01*
X0246500Y0204500D01*
X0251253Y0199500D02*
X0248572Y0195419D01*
X0248572Y0190307D01*
X0252944Y0190975D02*
X0257169Y0194500D01*
X0257169Y0210232D01*
X0257100Y0210302D01*
X0265831Y0202060D02*
X0265831Y0198240D01*
X0265831Y0190760D02*
X0256042Y0180971D01*
X0255016Y0180971D01*
X0260000Y0178787D01*
X0260000Y0150100D01*
X0264000Y0147500D01*
X0284800Y0147500D01*
X0252944Y0186433D02*
X0252944Y0190975D01*
X0221500Y0190091D02*
X0221500Y0189500D01*
X0213616Y0181616D01*
X0212916Y0180971D01*
X0215029Y0180971D01*
X0216500Y0179500D01*
X0210844Y0186433D02*
X0210844Y0195275D01*
X0220831Y0198240D02*
X0220831Y0209171D01*
X0219700Y0210302D01*
X0220831Y0190760D02*
X0221500Y0190091D01*
X0208893Y0170365D02*
X0208893Y0142182D01*
X0206211Y0139500D01*
X0201678Y0144500D02*
X0185698Y0144500D01*
X0201678Y0144500D02*
X0203721Y0147243D01*
X0203721Y0167650D01*
X0183211Y0199500D02*
X0179211Y0203500D01*
X0177298Y0201700D01*
X0183300Y0209500D02*
X0180700Y0212100D01*
X0177298Y0211500D01*
X0155900Y0210302D02*
X0155831Y0210232D01*
X0155831Y0198240D01*
X0155831Y0190760D02*
X0153404Y0190760D01*
X0144316Y0181671D01*
X0145029Y0180971D01*
X0146500Y0179500D01*
X0146500Y0130938D01*
X0147162Y0128100D01*
X0141500Y0134500D02*
X0143612Y0136612D01*
X0143612Y0175872D01*
X0140293Y0171065D02*
X0140293Y0143293D01*
X0136500Y0139500D01*
X0131500Y0144500D02*
X0135121Y0147421D01*
X0135121Y0168350D01*
X0129279Y0168350D02*
X0129279Y0151579D01*
X0126500Y0149500D01*
X0120617Y0154500D02*
X0124107Y0157289D01*
X0124107Y0171065D01*
X0120788Y0175872D02*
X0117872Y0175872D01*
X0116500Y0174500D01*
X0116500Y0159743D01*
X0116257Y0159500D01*
X0103612Y0171612D02*
X0103200Y0137500D01*
X0101500Y0135800D01*
X0101500Y0134500D01*
X0096500Y0139500D02*
X0095500Y0138500D01*
X0082500Y0138500D01*
X0072700Y0148300D01*
X0060831Y0148300D01*
X0056700Y0148100D02*
X0056700Y0143300D01*
X0069200Y0130800D01*
X0052169Y0142469D02*
X0047900Y0138200D01*
X0052169Y0142469D02*
X0052169Y0144560D01*
X0056700Y0148100D02*
X0052760Y0152040D01*
X0052169Y0152040D01*
X0053440Y0152040D01*
X0056700Y0155300D01*
X0056700Y0167550D01*
X0056610Y0167640D01*
X0052369Y0167640D01*
X0056700Y0167550D02*
X0056700Y0183876D01*
X0056664Y0183840D01*
X0052169Y0183840D01*
X0056700Y0183876D02*
X0056700Y0201312D01*
X0056028Y0200640D01*
X0052169Y0200640D01*
X0056700Y0201312D02*
X0056700Y0211709D01*
X0053111Y0215298D01*
X0050840Y0208760D02*
X0046500Y0213100D01*
X0050840Y0208760D02*
X0052169Y0208760D01*
X0060831Y0212500D02*
X0063635Y0212500D01*
X0084428Y0190307D01*
X0080056Y0186433D02*
X0070989Y0196900D01*
X0060831Y0196900D01*
X0052169Y0193160D02*
X0047540Y0193160D01*
X0046500Y0194200D01*
X0046500Y0199100D01*
X0060831Y0180100D02*
X0070900Y0180100D01*
X0076500Y0172400D01*
X0076500Y0164500D01*
X0082007Y0170365D02*
X0082007Y0157107D01*
X0081500Y0154500D01*
X0087179Y0151579D02*
X0086500Y0149500D01*
X0086300Y0149300D01*
X0076500Y0149300D01*
X0061900Y0163900D01*
X0061031Y0163900D01*
X0052369Y0160160D02*
X0049040Y0160160D01*
X0046500Y0162700D01*
X0046324Y0162700D01*
X0047540Y0176360D02*
X0046500Y0177400D01*
X0046500Y0179500D01*
X0047540Y0176360D02*
X0052169Y0176360D01*
X0076500Y0172400D02*
X0077172Y0175172D01*
X0078688Y0175172D01*
X0087179Y0167650D02*
X0087179Y0151579D01*
X0093021Y0146977D02*
X0091944Y0144500D01*
X0093021Y0146977D02*
X0093021Y0167650D01*
X0098193Y0170365D02*
X0098193Y0142593D01*
X0096500Y0139500D01*
X0103612Y0171612D02*
X0101512Y0175172D01*
X0100144Y0186433D02*
X0101100Y0193500D01*
X0101475Y0193875D01*
X0101544Y0193875D01*
X0102169Y0194500D01*
X0102169Y0209632D01*
X0101500Y0210302D01*
X0110831Y0210232D02*
X0110900Y0210302D01*
X0110831Y0210232D02*
X0110831Y0198240D01*
X0122156Y0187133D02*
X0122156Y0209456D01*
X0126500Y0214500D01*
X0132642Y0209500D02*
X0126528Y0202686D01*
X0126528Y0191007D01*
X0132200Y0192405D02*
X0132200Y0199500D01*
X0136500Y0204500D01*
X0141263Y0199500D02*
X0137872Y0196108D01*
X0137872Y0191007D01*
X0141544Y0188875D02*
X0147035Y0194366D01*
X0146500Y0194901D01*
X0146500Y0210302D01*
X0147169Y0194500D02*
X0147035Y0194366D01*
X0141544Y0188875D02*
X0142244Y0187133D01*
X0120084Y0181671D02*
X0119384Y0181616D01*
X0116500Y0184500D01*
X0110900Y0221498D02*
X0110900Y0221500D01*
X0197000Y0053500D02*
X0194900Y0051400D01*
X0194900Y0033900D01*
X0201652Y0027148D01*
X0203000Y0027148D01*
X0204581Y0026968D02*
X0214067Y0026968D01*
X0215500Y0026968D01*
X0219665Y0031133D01*
X0219665Y0030948D01*
X0219665Y0031133D02*
X0219665Y0038779D01*
X0221592Y0040706D01*
X0224970Y0040706D01*
X0229289Y0040706D01*
X0229843Y0041259D01*
X0229843Y0046259D01*
X0224970Y0044446D02*
X0224970Y0055021D01*
X0240571Y0049728D02*
X0241070Y0050227D01*
X0241433Y0050590D01*
X0248566Y0043700D02*
X0247224Y0042358D01*
X0247224Y0042716D01*
X0247224Y0042358D02*
X0247224Y0032873D01*
X0252760Y0027337D01*
X0242263Y0026988D02*
X0242243Y0026968D01*
X0225264Y0026968D01*
X0225264Y0036546D01*
X0225326Y0036609D01*
X0214340Y0036966D02*
X0214340Y0040706D01*
X0248566Y0043700D02*
X0256500Y0043700D01*
X0284047Y0039555D02*
X0284843Y0038059D01*
X0284843Y0018059D02*
X0126741Y0018059D01*
X0112300Y0031483D02*
X0112257Y0031441D01*
X0112300Y0031483D02*
X0112300Y0038800D01*
X0094100Y0024800D02*
X0072400Y0024800D01*
X0067043Y0028543D02*
X0067043Y0030659D01*
X0067043Y0028543D02*
X0064000Y0025500D01*
X0039500Y0025500D01*
X0037400Y0023400D01*
X0037400Y0019200D01*
X0036000Y0018500D01*
X0016102Y0018500D01*
X0016543Y0018059D01*
D24*
X0108600Y0128100D03*
X0101500Y0134500D03*
X0096500Y0139500D03*
X0091944Y0144500D03*
X0086500Y0149500D03*
X0081500Y0154500D03*
X0076500Y0164500D03*
X0116257Y0159500D03*
X0120617Y0154500D03*
X0126500Y0149500D03*
X0131500Y0144500D03*
X0136500Y0139500D03*
X0141500Y0134500D03*
X0147162Y0128100D03*
X0190100Y0159500D03*
X0193600Y0154500D03*
X0197900Y0149500D03*
X0201678Y0144500D03*
X0206211Y0139500D03*
X0210717Y0134500D03*
X0215700Y0128100D03*
X0206500Y0199500D03*
X0203384Y0204500D03*
X0200100Y0209500D03*
X0196500Y0214500D03*
X0191500Y0219500D03*
X0183300Y0209500D03*
X0183211Y0199500D03*
X0141263Y0199500D03*
X0136500Y0204500D03*
X0132642Y0209500D03*
X0126500Y0214500D03*
X0121807Y0219500D03*
X0231299Y0219500D03*
X0236500Y0214500D03*
X0241500Y0209500D03*
X0246500Y0204500D03*
X0251253Y0199500D03*
D25*
X0265831Y0202060D02*
X0265831Y0202700D01*
X0155900Y0221498D02*
X0155900Y0223603D01*
X0053111Y0215298D02*
X0052169Y0216240D01*
X0240571Y0049728D02*
X0240860Y0050017D01*
X0247185Y0050017D01*
X0241271Y0050026D02*
X0241070Y0050227D01*
X0241271Y0050026D02*
X0241271Y0037480D01*
X0239700Y0047200D02*
X0239000Y0047200D01*
X0067043Y0040659D02*
X0066559Y0040659D01*
D26*
X0104843Y0071857D02*
X0105847Y0072862D01*
X0106744Y0073759D01*
X0203000Y0038172D02*
X0204134Y0040706D01*
X0203000Y0027148D02*
X0204581Y0026968D01*
X0214067Y0026968D02*
X0214134Y0026968D01*
X0214909Y0026192D01*
X0224970Y0025293D02*
X0225244Y0026988D01*
X0225264Y0026968D01*
X0225326Y0036609D02*
X0224970Y0036966D01*
X0240571Y0039527D02*
X0241271Y0037480D01*
X0252760Y0027337D02*
X0253460Y0026988D01*
X0247185Y0050017D02*
X0247089Y0051320D01*
X0246358Y0050590D01*
X0241433Y0050590D01*
X0242882Y0063987D02*
X0246473Y0065325D01*
X0247185Y0064190D01*
X0225172Y0055224D02*
X0224970Y0055021D01*
X0214340Y0055033D02*
X0214149Y0055224D01*
D27*
X0229843Y0046259D03*
X0197000Y0053500D03*
X0119843Y0081959D03*
X0100643Y0067359D03*
X0097043Y0063759D03*
X0102043Y0060159D03*
X0106343Y0056559D03*
X0110343Y0052659D03*
X0115800Y0043700D03*
X0094100Y0024800D03*
X0050700Y0022700D03*
X0093032Y0066549D03*
X0090600Y0075900D03*
X0090543Y0086259D03*
X0078700Y0076600D03*
X0075200Y0080100D03*
X0074500Y0067500D03*
X0082484Y0099783D03*
X0047900Y0138200D03*
X0046324Y0162700D03*
X0046500Y0179500D03*
X0046500Y0199100D03*
X0046500Y0213100D03*
X0133300Y0228500D03*
X0226400Y0224300D03*
D28*
X0240400Y0067500D02*
X0253700Y0067500D01*
X0257900Y0038800D02*
X0257900Y0035300D01*
X0238300Y0035300D02*
X0238300Y0040200D01*
D29*
X0240400Y0046500D02*
X0253700Y0046500D01*
M02*
