G75*
%MOIN*%
%OFA0B0*%
%FSLAX25Y25*%
%IPPOS*%
%LPD*%
%AMOC8*
5,1,8,0,0,1.08239X$1,22.5*
%
%ADD10C,0.04737*%
%ADD11R,0.06312X0.04737*%
%ADD12R,0.07099X0.07898*%
%ADD13C,0.05162*%
%ADD14R,0.07898X0.07099*%
%ADD15C,0.06800*%
%ADD16R,0.11750X0.11750*%
%ADD17R,0.06800X0.06800*%
%ADD18OC8,0.06800*%
%ADD19R,0.07887X0.07099*%
%ADD20R,0.07099X0.07887*%
%ADD21R,0.05131X0.03162*%
%ADD22R,0.16548X0.06706*%
%ADD23R,0.06784X0.07414*%
%ADD24C,0.03778*%
%ADD25OC8,0.03778*%
D10*
X0016400Y0008700D03*
X0016400Y0110200D03*
X0016400Y0127700D03*
X0016400Y0228500D03*
X0285200Y0228500D03*
X0285200Y0127700D03*
X0285200Y0110200D03*
X0285200Y0008700D03*
D11*
X0060831Y0148300D03*
X0052169Y0144560D03*
X0052169Y0152040D03*
X0052369Y0160160D03*
X0052369Y0167640D03*
X0061031Y0163900D03*
X0052169Y0176360D03*
X0052169Y0183840D03*
X0060831Y0180100D03*
X0052169Y0193160D03*
X0052169Y0200640D03*
X0052169Y0208760D03*
X0060831Y0212500D03*
X0052169Y0216240D03*
X0060831Y0196900D03*
X0102169Y0194500D03*
X0110831Y0190760D03*
X0110831Y0198240D03*
X0147169Y0194500D03*
X0155831Y0190760D03*
X0155831Y0198240D03*
X0212169Y0194500D03*
X0220831Y0190760D03*
X0220831Y0198240D03*
X0257169Y0194500D03*
X0265831Y0190760D03*
X0265831Y0198240D03*
D12*
X0177298Y0201700D03*
X0166102Y0201700D03*
X0166102Y0192100D03*
X0177298Y0192100D03*
X0177298Y0182100D03*
X0166102Y0182100D03*
X0166102Y0172100D03*
X0177298Y0172100D03*
X0177298Y0162500D03*
X0166102Y0162500D03*
X0166102Y0152900D03*
X0177298Y0152900D03*
X0177298Y0143100D03*
X0166102Y0143100D03*
X0166102Y0133300D03*
X0177298Y0133300D03*
X0117941Y0088759D03*
X0106744Y0088759D03*
X0106744Y0073759D03*
X0117941Y0073759D03*
X0214067Y0026968D03*
X0225264Y0026968D03*
X0242263Y0026988D03*
X0253460Y0026988D03*
X0177298Y0211500D03*
X0166102Y0211500D03*
X0166102Y0221100D03*
X0177298Y0221100D03*
D13*
X0195128Y0190307D03*
X0190756Y0186433D03*
X0188684Y0180971D03*
X0189388Y0175172D03*
X0192707Y0170365D03*
X0197879Y0167650D03*
X0203721Y0167650D03*
X0208893Y0170365D03*
X0212212Y0175172D03*
X0212916Y0180971D03*
X0210844Y0186433D03*
X0206472Y0190307D03*
X0200800Y0191705D03*
X0230784Y0180971D03*
X0231488Y0175172D03*
X0234807Y0170365D03*
X0239979Y0167650D03*
X0245821Y0167650D03*
X0250993Y0170365D03*
X0254312Y0175172D03*
X0255016Y0180971D03*
X0252944Y0186433D03*
X0248572Y0190307D03*
X0242900Y0191705D03*
X0237228Y0190307D03*
X0232856Y0186433D03*
X0144316Y0181671D03*
X0143612Y0175872D03*
X0140293Y0171065D03*
X0135121Y0168350D03*
X0129279Y0168350D03*
X0124107Y0171065D03*
X0120788Y0175872D03*
X0120084Y0181671D03*
X0122156Y0187133D03*
X0126528Y0191007D03*
X0132200Y0192405D03*
X0137872Y0191007D03*
X0142244Y0187133D03*
X0102216Y0180971D03*
X0101512Y0175172D03*
X0098193Y0170365D03*
X0093021Y0167650D03*
X0087179Y0167650D03*
X0082007Y0170365D03*
X0078688Y0175172D03*
X0077984Y0180971D03*
X0080056Y0186433D03*
X0084428Y0190307D03*
X0090100Y0191705D03*
X0095772Y0190307D03*
X0100144Y0186433D03*
D14*
X0101500Y0210302D03*
X0110900Y0210302D03*
X0110900Y0221498D03*
X0101500Y0221498D03*
X0146500Y0221498D03*
X0155900Y0221498D03*
X0155900Y0210302D03*
X0146500Y0210302D03*
X0210900Y0210302D03*
X0219700Y0210302D03*
X0219700Y0221498D03*
X0210900Y0221498D03*
X0257100Y0221498D03*
X0266500Y0221498D03*
X0266500Y0210302D03*
X0257100Y0210302D03*
D15*
X0281800Y0207500D02*
X0287800Y0207500D01*
X0287800Y0197500D02*
X0281800Y0197500D01*
X0281800Y0187500D02*
X0287800Y0187500D01*
X0287800Y0177500D02*
X0281800Y0177500D01*
X0281800Y0167500D02*
X0287800Y0167500D01*
X0287800Y0157500D02*
X0281800Y0157500D01*
X0281800Y0147500D02*
X0287800Y0147500D01*
X0287800Y0137500D02*
X0281800Y0137500D01*
X0281843Y0088059D02*
X0287843Y0088059D01*
X0287843Y0078059D02*
X0281843Y0078059D01*
X0281843Y0068059D02*
X0287843Y0068059D01*
X0287843Y0058059D02*
X0281843Y0058059D01*
X0281843Y0048059D02*
X0287843Y0048059D01*
X0287843Y0038059D02*
X0281843Y0038059D01*
X0281843Y0028059D02*
X0287843Y0028059D01*
X0287843Y0018059D02*
X0281843Y0018059D01*
X0182543Y0029059D02*
X0182543Y0035059D01*
X0172543Y0035059D02*
X0172543Y0029059D01*
X0160843Y0028759D02*
X0160843Y0034759D01*
X0150843Y0034759D02*
X0150843Y0028759D01*
X0112257Y0028441D02*
X0112257Y0034441D01*
X0102257Y0034441D02*
X0102257Y0028441D01*
X0019543Y0028059D02*
X0013543Y0028059D01*
X0013543Y0018059D02*
X0019543Y0018059D01*
X0019543Y0038059D02*
X0013543Y0038059D01*
X0013543Y0048059D02*
X0019543Y0048059D01*
X0019543Y0058059D02*
X0013543Y0058059D01*
X0013543Y0068059D02*
X0019543Y0068059D01*
X0019543Y0078059D02*
X0013543Y0078059D01*
X0013543Y0088059D02*
X0019543Y0088059D01*
X0019543Y0098059D02*
X0013543Y0098059D01*
X0013500Y0137700D02*
X0019500Y0137700D01*
X0019500Y0147700D02*
X0013500Y0147700D01*
X0013500Y0157700D02*
X0019500Y0157700D01*
X0019500Y0167700D02*
X0013500Y0167700D01*
X0013500Y0177700D02*
X0019500Y0177700D01*
X0019500Y0187700D02*
X0013500Y0187700D01*
X0013500Y0197700D02*
X0019500Y0197700D01*
X0019500Y0207700D02*
X0013500Y0207700D01*
X0013500Y0217700D02*
X0019500Y0217700D01*
D16*
X0145243Y0092959D03*
X0197243Y0092959D03*
D17*
X0094843Y0108859D03*
X0057043Y0030659D03*
D18*
X0067043Y0030659D03*
X0077043Y0030659D03*
X0077043Y0040659D03*
X0067043Y0040659D03*
X0057043Y0040659D03*
X0064843Y0108859D03*
X0074843Y0108859D03*
X0084843Y0108859D03*
D19*
X0203000Y0038172D03*
X0203000Y0027148D03*
X0269412Y0027131D03*
X0269412Y0038155D03*
D20*
X0225172Y0055224D03*
X0214149Y0055224D03*
D21*
X0214340Y0044446D03*
X0214340Y0040706D03*
X0214340Y0036966D03*
X0224970Y0036966D03*
X0224970Y0040706D03*
X0224970Y0044446D03*
D22*
X0247185Y0050017D03*
X0247185Y0064190D03*
D23*
X0241271Y0037480D03*
X0254657Y0037480D03*
D24*
X0215700Y0128100D03*
X0210717Y0134500D03*
X0206211Y0139500D03*
X0201678Y0144500D03*
X0197900Y0149500D03*
X0193600Y0154500D03*
X0190100Y0159500D03*
X0147162Y0128100D03*
X0141500Y0134500D03*
X0136500Y0139500D03*
X0131500Y0144500D03*
X0126500Y0149500D03*
X0120617Y0154500D03*
X0116257Y0159500D03*
X0096500Y0139500D03*
X0091944Y0144500D03*
X0086500Y0149500D03*
X0081500Y0154500D03*
X0076500Y0164500D03*
X0101500Y0134500D03*
X0108600Y0128100D03*
X0141263Y0199500D03*
X0136500Y0204500D03*
X0132642Y0209500D03*
X0126500Y0214500D03*
X0121807Y0219500D03*
X0183300Y0209500D03*
X0183211Y0199500D03*
X0200100Y0209500D03*
X0203384Y0204500D03*
X0206500Y0199500D03*
X0196500Y0214500D03*
X0191500Y0219500D03*
X0231299Y0219500D03*
X0236500Y0214500D03*
X0241500Y0209500D03*
X0246500Y0204500D03*
X0251253Y0199500D03*
D25*
X0226400Y0224300D03*
X0133300Y0228500D03*
X0046500Y0213100D03*
X0046500Y0199100D03*
X0046500Y0179500D03*
X0046324Y0162700D03*
X0047900Y0138200D03*
X0082484Y0099783D03*
X0090543Y0086259D03*
X0090600Y0075900D03*
X0100643Y0067359D03*
X0097043Y0063759D03*
X0102043Y0060159D03*
X0106343Y0056559D03*
X0110343Y0052659D03*
X0115800Y0043700D03*
X0094100Y0024800D03*
X0050700Y0022700D03*
X0093032Y0066549D03*
X0078700Y0076600D03*
X0075200Y0080100D03*
X0074500Y0067500D03*
X0119843Y0081959D03*
X0197000Y0053500D03*
X0229843Y0046259D03*
M02*
