%
M48
M72
T01C0.01378
T02C0.02362
T03C0.03937
T04C0.04000
T05C0.07300
%
T01
X50700Y22700
X94100Y24800
X115800Y43700
X110343Y52659
X106343Y56559
X102043Y60159
X97043Y63759
X93032Y66549
X100643Y67359
X90600Y75900
X90543Y86259
X78700Y76600
X75200Y80100
X74500Y67500
X82484Y99783
X108600Y128100
X101500Y134500
X96500Y139500
X91944Y144500
X86500Y149500
X81500Y154500
X76500Y164500
X46324Y162700
X46500Y179500
X46500Y199100
X46500Y213100
X116257Y159500
X120617Y154500
X126500Y149500
X131500Y144500
X136500Y139500
X141500Y134500
X147162Y128100
X190100Y159500
X193600Y154500
X197900Y149500
X201678Y144500
X206211Y139500
X210717Y134500
X215700Y128100
X206500Y199500
X203384Y204500
X200100Y209500
X196500Y214500
X191500Y219500
X183300Y209500
X183211Y199500
X141263Y199500
X136500Y204500
X132642Y209500
X126500Y214500
X121807Y219500
X133300Y228500
X226400Y224300
X231299Y219500
X236500Y214500
X241500Y209500
X246500Y204500
X251253Y199500
X119843Y81959
X47900Y138200
X197000Y53500
X229843Y46259
T02
X239979Y167650
X234807Y170365
X231488Y175172
X230784Y180971
X232856Y186433
X237228Y190307
X242900Y191705
X248572Y190307
X252944Y186433
X255016Y180971
X254312Y175172
X250993Y170365
X245821Y167650
X212212Y175172
X212916Y180971
X210844Y186433
X206472Y190307
X200800Y191705
X195128Y190307
X190756Y186433
X188684Y180971
X189388Y175172
X192707Y170365
X197879Y167650
X203721Y167650
X208893Y170365
X143612Y175872
X140293Y171065
X135121Y168350
X129279Y168350
X124107Y171065
X120788Y175872
X120084Y181671
X122156Y187133
X126528Y191007
X132200Y192405
X137872Y191007
X142244Y187133
X144316Y181671
X102216Y180971
X101512Y175172
X98193Y170365
X93021Y167650
X87179Y167650
X82007Y170365
X78688Y175172
X77984Y180971
X80056Y186433
X84428Y190307
X90100Y191705
X95772Y190307
X100144Y186433
T03
X16400Y8700
X16400Y110200
X16400Y127700
X16400Y228500
X285200Y228500
X285200Y127700
X285200Y110200
X285200Y8700
T04
X284843Y18059
X284843Y28059
X284843Y38059
X284843Y48059
X284843Y58059
X284843Y68059
X284843Y78059
X284843Y88059
X284800Y137500
X284800Y147500
X284800Y157500
X284800Y167500
X284800Y177500
X284800Y187500
X284800Y197500
X284800Y207500
X94843Y108859
X84843Y108859
X74843Y108859
X64843Y108859
X16543Y98059
X16543Y88059
X16543Y78059
X16543Y68059
X16543Y58059
X16543Y48059
X16543Y38059
X16543Y28059
X16543Y18059
X57043Y30659
X67043Y30659
X77043Y30659
X77043Y40659
X67043Y40659
X57043Y40659
X102257Y31441
X112257Y31441
X150843Y31759
X160843Y31759
X172543Y32059
X182543Y32059
X16500Y137700
X16500Y147700
X16500Y157700
X16500Y167700
X16500Y177700
X16500Y187700
X16500Y197700
X16500Y207700
X16500Y217700
T05
X145243Y92959
X197243Y92959
M30
